# xmcd CD database file
#
# Track frame offsets:
#	150
#	17637
#	38275
#	60150
#	75337
#	95250
#	116112
#	135687
#	150450
#	166550
#
# Disc length: 2484 seconds
#
# Revision: 2
# Processed by: cddbd v1.5.1PL0 Copyright (c) Steve Scherf et al.
# Submitted via: CDex 1.40Release
#
DISCID=5d09b20a
DTITLE=Daniel Chan 陳曉東 - Tien Xin 感覺貼心
DYEAR=1998
DGENRE=Pop
TTITLE0=貼心
TTITLE1=Wanna Know 要知道你的感覺
TTITLE2=孤單的夜裡我不孤單
TTITLE3=抓夢
TTITLE4=心傷心痛不痛
TTITLE5=每一天都想念
TTITLE6=包容
TTITLE7=追到外太空
TTITLE8=Pao Rong 當夢被看見
TTITLE9=我以為我會懂
EXTD=YEAR: 1998 ID3G: 13
EXTT0=
EXTT1=
EXTT2=
EXTT3=
EXTT4=
EXTT5=
EXTT6=
EXTT7=
EXTT8=
EXTT9=
PLAYORDER=
